<?xml version="1.0" standalone="no"?>
<!DOCTYPE svg PUBLIC "-//W3C//DTD SVG 20010904//EN"
 "http://www.w3.org/TR/2001/REC-SVG-20010904/DTD/svg10.dtd">
<svg version="1.0" xmlns="http://www.w3.org/2000/svg"
 width="24.000000pt" height="24.000000pt" viewBox="0 0 24.000000 24.000000"
 preserveAspectRatio="xMidYMid meet">

<g transform="translate(0.000000,24.000000) scale(0.100000,-0.100000)"
fill="#000000" stroke="none">
<path d="M93 158 c-56 -57 -73 -82 -79 -112 l-7 -39 39 7 c30 6 55 23 112 79
39 39 72 79 72 88 0 19 -31 49 -51 49 -8 0 -47 -33 -86 -72z m121 40 c8 -13 7
-21 -2 -30 -10 -10 -17 -8 -33 9 -23 22 -18 46 8 41 9 -2 21 -11 27 -20z m-39
-28 c10 -11 15 -23 12 -27 -8 -7 -47 25 -47 39 0 14 16 9 35 -12z m-75 -65
c-29 -30 -47 -42 -54 -35 -7 7 5 25 34 55 29 30 47 42 54 35 7 -7 -5 -25 -34
-55z m64 27 c8 -14 -80 -95 -94 -87 -8 5 2 22 31 51 44 45 54 50 63 36z m-110
-103 c-8 -14 -34 -11 -34 4 0 8 3 17 7 20 9 9 34 -13 27 -24z"/>
</g>
</svg>
