<?xml version="1.0" standalone="no"?>
<!DOCTYPE svg PUBLIC "-//W3C//DTD SVG 20010904//EN"
 "http://www.w3.org/TR/2001/REC-SVG-20010904/DTD/svg10.dtd">
<svg version="1.0" xmlns="http://www.w3.org/2000/svg"
 width="24.000000pt" height="24.000000pt" viewBox="0 0 24.000000 24.000000"
 preserveAspectRatio="xMidYMid meet">

<g transform="translate(0.000000,24.000000) scale(0.100000,-0.100000)"
fill="#000000" stroke="none">
<path d="M75 231 c-11 -5 -31 -21 -45 -36 -35 -38 -36 -115 0 -147 l24 -23
-19 24 c-14 16 -20 38 -20 72 0 40 5 54 28 76 23 23 36 28 77 28 41 0 54 -5
77 -28 23 -23 28 -36 28 -77 0 -40 -5 -55 -26 -76 -29 -29 -98 -40 -106 -16
-3 6 2 12 11 12 24 0 39 35 21 50 -31 26 -13 65 30 65 15 0 20 7 20 25 0 51
-59 31 -91 -32 -15 -29 -19 -80 -7 -92 4 -4 8 -17 8 -29 0 -19 5 -22 43 -21
35 1 50 7 75 33 27 27 32 39 32 81 0 42 -5 54 -31 81 -33 33 -92 46 -129 30z
m93 -54 c3 -14 -1 -17 -21 -12 -19 5 -28 2 -36 -13 -15 -28 -14 -53 4 -66 10
-8 12 -16 5 -26 -8 -13 -11 -13 -26 2 -12 12 -15 25 -10 51 13 67 75 114 84
64z"/>
</g>
</svg>
